<?xml version="1.0" standalone="no"?>
<!DOCTYPE svg PUBLIC "-//W3C//DTD SVG 20010904//EN"
 "http://www.w3.org/TR/2001/REC-SVG-20010904/DTD/svg10.dtd">
<svg version="1.0" xmlns="http://www.w3.org/2000/svg"
 width="1190.000000pt" height="1190.000000pt" viewBox="0 0 1190.000000 1190.000000"
 preserveAspectRatio="xMidYMid meet">
<metadata>
Created by potrace 1.14, written by Peter Selinger 2001-2017
</metadata>
<g transform="translate(0.000000,1190.000000) scale(0.100000,-0.100000)"
fill="#000000" stroke="none">
<path d="M0 5950 l0 -5950 5950 0 5950 0 0 5950 0 5950 -5950 0 -5950 0 0
-5950z m10718 3452 c13 -7 32 -28 42 -45 20 -32 20 -83 20 -3410 0 -3746 6
-3428 -65 -3461 -30 -15 -476 -16 -4755 -16 -4243 0 -4724 2 -4751 15 -16 9
-39 30 -49 48 -20 32 -20 77 -20 3405 0 3574 -2 3413 44 3451 9 7 31 17 49 21
17 4 2154 7 4747 6 3874 -1 4719 -3 4738 -14z"/>
<path d="M1370 8920 c0 -179 3 -260 11 -260 6 0 56 36 112 81 56 44 190 149
297 234 107 85 209 165 225 179 l30 25 -337 1 -338 0 0 -260z"/>
<path d="M2365 9137 c-27 -24 -178 -144 -335 -267 -157 -123 -369 -291 -472
-373 l-188 -149 0 -284 c0 -156 2 -284 5 -284 5 0 430 338 1095 870 157 125
366 292 465 370 99 79 184 147 189 151 6 5 -147 9 -350 9 l-359 0 -50 -43z"/>
<path d="M3345 9053 c-88 -70 -448 -357 -800 -638 -352 -281 -760 -606 -907
-724 l-268 -213 0 -359 c0 -197 4 -359 9 -359 7 0 327 282 766 675 44 39 262
233 485 430 223 198 421 374 440 391 19 17 82 73 140 124 58 51 125 112 150
134 25 23 126 113 225 201 363 321 515 458 515 461 0 2 -134 4 -298 4 l-297 0
-160 -127z"/>
<path d="M4195 8948 c-389 -346 -1053 -937 -1988 -1767 l-837 -744 0 -1058 c0
-583 4 -1059 8 -1059 9 0 140 132 907 915 280 286 621 633 757 770 137 138
248 254 248 258 0 4 -18 7 -41 7 -51 0 -94 29 -109 74 -10 30 8 119 155 782
92 411 172 759 180 773 7 15 111 121 231 236 245 235 700 674 932 897 l154
148 -169 0 -168 0 -260 -232z"/>
<path d="M4775 8843 c-193 -185 -467 -450 -610 -588 -143 -139 -275 -264 -293
-279 -17 -16 -30 -31 -27 -35 2 -5 33 -11 67 -14 35 -3 155 -16 268 -27 l205
-22 620 622 c341 342 625 627 630 634 43 49 60 46 -236 46 l-274 0 -350 -337z"/>
<path d="M5278 8448 c-399 -403 -729 -736 -733 -740 -6 -6 -33 -136 -120 -593
-25 -132 -50 -260 -56 -284 -5 -24 -8 -45 -6 -48 4 -4 98 98 422 457 87 96
176 195 199 220 23 25 104 115 181 200 77 85 142 157 145 160 3 3 106 117 230
255 251 279 535 593 799 884 97 106 180 199 184 207 7 12 -33 14 -256 14
l-264 0 -725 -732z"/>
<path d="M6835 9166 c-6 -8 -111 -126 -235 -263 -233 -257 -819 -904 -1079
-1194 -52 -57 -113 -124 -135 -149 -23 -25 -82 -90 -131 -145 -50 -55 -111
-122 -136 -150 -25 -27 -90 -100 -145 -160 -506 -563 -738 -816 -754 -825 -11
-6 -132 -10 -307 -10 l-289 0 -145 -147 c-79 -82 -396 -404 -704 -716 -307
-313 -567 -578 -578 -590 -10 -12 -159 -163 -330 -336 -273 -275 -310 -315
-292 -322 11 -5 207 -50 435 -100 798 -175 1176 -258 1243 -273 38 -9 76 -16
85 -16 9 0 44 35 78 78 33 42 177 226 319 407 143 182 340 434 439 560 98 127
211 271 251 320 39 50 217 277 396 505 643 821 916 1169 1102 1405 103 132
243 310 310 395 139 178 818 1044 1139 1453 120 152 218 279 218 282 0 3 -168
5 -373 5 -309 0 -374 -2 -382 -14z"/>
<path d="M7803 9068 c-49 -61 -131 -166 -183 -232 -53 -67 -159 -202 -236
-301 -77 -99 -300 -382 -494 -630 -195 -247 -370 -471 -389 -496 -20 -26 -166
-213 -326 -415 -159 -203 -339 -432 -399 -509 -61 -77 -158 -201 -216 -275
-59 -74 -173 -220 -255 -325 -82 -104 -262 -334 -400 -510 -138 -176 -383
-489 -545 -695 -161 -206 -341 -436 -400 -510 -97 -123 -319 -407 -343 -438
-17 -22 -59 -11 533 -141 332 -72 779 -171 1079 -237 l295 -65 16 21 c8 11
124 188 257 393 132 205 364 561 514 792 150 231 371 571 490 755 120 184 215
338 211 342 -4 3 -180 41 -392 83 -212 42 -396 84 -410 93 -51 32 -68 83 -46
136 7 18 89 154 181 302 284 456 363 585 636 1024 333 538 554 895 700 1130
210 337 375 604 442 713 l67 107 -150 0 -150 0 -87 -112z"/>
<path d="M8314 8943 c-166 -268 -345 -556 -442 -713 -35 -58 -93 -150 -127
-205 -35 -55 -195 -314 -357 -575 -162 -261 -301 -485 -308 -497 -8 -12 -12
-25 -8 -28 6 -6 457 -75 492 -75 17 0 43 42 138 223 64 122 337 639 606 1150
270 510 493 934 496 942 5 13 -19 15 -169 15 l-174 0 -147 -237z"/>
<path d="M9033 9103 c-23 -43 -170 -323 -328 -623 -158 -300 -331 -628 -385
-730 -54 -102 -164 -311 -245 -465 -81 -154 -185 -351 -232 -438 l-84 -157 11
-317 c5 -174 12 -318 14 -320 4 -5 41 64 324 602 115 220 417 794 670 1275
253 481 503 957 556 1058 53 101 96 185 96 188 0 2 -80 4 -178 4 l-178 0 -41
-77z"/>
<path d="M9510 8828 c-102 -194 -257 -490 -346 -658 -88 -168 -193 -368 -234
-445 -40 -77 -110 -210 -155 -295 -45 -85 -115 -218 -155 -295 -40 -77 -184
-351 -320 -610 -136 -258 -309 -589 -386 -735 -76 -145 -148 -275 -159 -288
-33 -38 -81 -38 -276 2 -97 20 -185 36 -196 36 -15 0 -170 -232 -670 -1002
-358 -552 -694 -1069 -746 -1150 -53 -81 -93 -149 -89 -152 6 -4 283 -65 977
-216 149 -33 446 -98 660 -146 215 -47 408 -88 430 -91 l40 -5 120 253 c65
140 143 306 173 369 30 63 71 151 92 195 20 44 113 240 205 435 92 195 184
391 205 435 62 132 189 403 242 515 103 216 119 253 109 259 -5 3 -116 24
-247 46 -231 38 -238 40 -272 72 -32 31 -34 36 -29 80 3 33 43 129 127 308 67
143 133 285 147 315 14 30 52 111 84 179 33 68 59 125 59 126 0 1 24 54 54
116 61 130 169 361 524 1119 137 294 358 767 491 1051 132 284 241 519 241
522 0 4 -116 7 -257 7 l-258 0 -185 -352z"/>
<path d="M10441 9118 c-16 -35 -78 -169 -139 -298 -60 -129 -256 -548 -435
-930 -178 -382 -404 -864 -501 -1072 -97 -207 -176 -381 -176 -387 0 -6 8 -11
18 -11 9 0 136 -11 282 -25 146 -13 268 -21 272 -17 7 7 93 207 283 657 51
121 186 439 299 707 l206 487 0 475 0 476 -40 0 c-40 0 -41 -1 -69 -62z"/>
<path d="M3529 7114 l-136 -609 335 -3 c184 -1 337 0 340 3 3 3 22 94 43 202
21 109 70 360 108 558 39 198 71 367 71 375 0 16 -48 22 -581 77 l-45 5 -135
-608z"/>
<path d="M10481 7475 c-35 -82 -168 -397 -296 -700 l-233 -550 12 -197 c7
-109 15 -200 18 -203 3 -3 12 13 21 37 34 99 283 806 337 958 33 91 93 261
135 379 l76 214 -3 106 -3 106 -64 -150z"/>
<path d="M6923 6697 c-17 -20 -454 -728 -460 -743 -3 -8 -1 -14 4 -14 5 0 244
-47 532 -105 287 -58 530 -105 540 -105 16 0 17 11 14 113 -2 61 -8 260 -12
440 -5 180 -10 330 -13 332 -2 2 -128 23 -279 45 -151 22 -284 42 -295 45 -12
3 -26 -1 -31 -8z"/>
<path d="M10392 6270 c-85 -239 -192 -543 -239 -675 -46 -132 -99 -282 -116
-334 -40 -117 -76 -161 -132 -161 -30 0 -474 71 -596 96 -24 5 -29 0 -57 -58
-95 -201 -647 -1372 -772 -1638 -81 -173 -195 -416 -254 -539 -58 -124 -106
-228 -106 -232 0 -25 142 -29 1018 -27 l913 3 24 60 c24 60 215 544 384 971
l91 230 -2 1370 -3 1369 -153 -435z"/>
<path d="M9051 6142 c-60 -120 -281 -599 -281 -609 0 -12 13 -15 445 -88 182
-31 379 -65 439 -76 60 -10 111 -17 114 -15 4 5 -38 779 -43 785 -2 1 -122 14
-267 26 -145 13 -289 26 -320 29 l-58 6 -29 -58z"/>
<path d="M10427 3028 c-64 -161 -119 -301 -122 -310 -7 -17 3 -18 119 -18
l126 0 0 310 c0 171 -1 310 -3 310 -2 0 -56 -132 -120 -292z"/>
</g>
</svg>
